<svg width="38" height="40" viewBox="0 0 38 40" fill="none" xmlns="http://www.w3.org/2000/svg">
<path d="M9 22.2083H2.33334C1.89131 22.2083 1.46739 22.3949 1.15483 22.727C0.842266 23.0591 0.666672 23.5095 0.666672 23.9791V38.1458C0.666672 38.6155 0.842266 39.0659 1.15483 39.398C1.46739 39.7301 1.89131 39.9166 2.33334 39.9166H9C9.44203 39.9166 9.86595 39.7301 10.1785 39.398C10.4911 39.0659 10.6667 38.6155 10.6667 38.1458V23.9791C10.6667 23.5095 10.4911 23.0591 10.1785 22.727C9.86595 22.3949 9.44203 22.2083 9 22.2083ZM7.33334 36.375H4V25.75H7.33334V36.375ZM35.6667 15.125H29C28.558 15.125 28.1341 15.3116 27.8215 15.6436C27.5089 15.9757 27.3333 16.4262 27.3333 16.8958V38.1458C27.3333 38.6155 27.5089 39.0659 27.8215 39.398C28.1341 39.7301 28.558 39.9166 29 39.9166H35.6667C36.1087 39.9166 36.5326 39.7301 36.8452 39.398C37.1577 39.0659 37.3333 38.6155 37.3333 38.1458V16.8958C37.3333 16.4262 37.1577 15.9757 36.8452 15.6436C36.5326 15.3116 36.1087 15.125 35.6667 15.125ZM34 36.375H30.6667V18.6666H34V36.375ZM22.3333 0.958313H15.6667C15.2246 0.958313 14.8007 1.14488 14.4882 1.47698C14.1756 1.80907 14 2.25949 14 2.72915V38.1458C14 38.6155 14.1756 39.0659 14.4882 39.398C14.8007 39.7301 15.2246 39.9166 15.6667 39.9166H22.3333C22.7754 39.9166 23.1993 39.7301 23.5118 39.398C23.8244 39.0659 24 38.6155 24 38.1458V2.72915C24 2.25949 23.8244 1.80907 23.5118 1.47698C23.1993 1.14488 22.7754 0.958313 22.3333 0.958313ZM20.6667 36.375H17.3333V4.49998H20.6667V36.375Z" fill="#EB612C"/>
</svg>
