<svg width="31" height="36" viewBox="0 0 31 36" fill="none" xmlns="http://www.w3.org/2000/svg">
<path d="M29.5167 26.3406L25.4833 22.0552C25.3284 21.8892 25.1441 21.7575 24.941 21.6676C24.7379 21.5777 24.52 21.5314 24.3 21.5314C24.08 21.5314 23.8621 21.5777 23.659 21.6676C23.4559 21.7575 23.2716 21.8892 23.1167 22.0552L17.15 28.3948C16.9955 28.5602 16.8733 28.7565 16.7904 28.9722C16.7074 29.188 16.6654 29.419 16.6667 29.6521V33.9375C16.6667 34.4071 16.8423 34.8576 17.1548 35.1897C17.4674 35.5218 17.8913 35.7083 18.3333 35.7083H22.3667C22.586 35.7097 22.8034 35.665 23.0065 35.5769C23.2096 35.4888 23.3943 35.3589 23.55 35.1948L29.5167 28.8552C29.6729 28.6906 29.7969 28.4947 29.8815 28.2789C29.9661 28.0631 30.0097 27.8317 30.0097 27.5979C30.0097 27.3641 29.9661 27.1327 29.8815 26.9169C29.7969 26.7011 29.6729 26.5052 29.5167 26.3406ZM21.6667 32.1667H20V30.3958L24.3 25.8271L25.9667 27.5979L21.6667 32.1667ZM11.6667 32.1667H5C4.55797 32.1667 4.13405 31.9801 3.82149 31.648C3.50893 31.3159 3.33333 30.8655 3.33333 30.3958V5.60416C3.33333 5.1345 3.50893 4.68408 3.82149 4.35199C4.13405 4.01989 4.55797 3.83332 5 3.83332H13.3333V9.14582C13.3333 10.5548 13.8601 11.906 14.7978 12.9023C15.7355 13.8986 17.0072 14.4583 18.3333 14.4583H23.3333V16.2292C23.3333 16.6988 23.5089 17.1492 23.8215 17.4813C24.134 17.8134 24.558 18 25 18C25.442 18 25.866 17.8134 26.1785 17.4813C26.4911 17.1492 26.6667 16.6988 26.6667 16.2292V12.6875C26.6667 12.6875 26.6667 12.6875 26.6667 12.5812C26.6493 12.4186 26.6158 12.2583 26.5667 12.1031V11.9437C26.4865 11.7617 26.3796 11.5943 26.25 11.4479L16.25 0.822906C16.1122 0.685164 15.9547 0.571592 15.7833 0.486448C15.7336 0.47894 15.6831 0.47894 15.6333 0.486448L15.1 0.291656H5C3.67392 0.291656 2.40215 0.851365 1.46447 1.84765C0.526784 2.84394 0 4.19519 0 5.60416V30.3958C0 31.8048 0.526784 33.156 1.46447 34.1523C2.40215 35.1486 3.67392 35.7083 5 35.7083H11.6667C12.1087 35.7083 12.5326 35.5218 12.8452 35.1897C13.1577 34.8576 13.3333 34.4071 13.3333 33.9375C13.3333 33.4678 13.1577 33.0174 12.8452 32.6853C12.5326 32.3532 12.1087 32.1667 11.6667 32.1667ZM16.6667 6.3302L20.9833 10.9167H18.3333C17.8913 10.9167 17.4674 10.7301 17.1548 10.398C16.8423 10.0659 16.6667 9.61548 16.6667 9.14582V6.3302ZM8.33333 21.5417H18.3333C18.7754 21.5417 19.1993 21.3551 19.5118 21.023C19.8244 20.6909 20 20.2405 20 19.7708C20 19.3012 19.8244 18.8507 19.5118 18.5187C19.1993 18.1866 18.7754 18 18.3333 18H8.33333C7.89131 18 7.46738 18.1866 7.15482 18.5187C6.84226 18.8507 6.66667 19.3012 6.66667 19.7708C6.66667 20.2405 6.84226 20.6909 7.15482 21.023C7.46738 21.3551 7.89131 21.5417 8.33333 21.5417ZM8.33333 14.4583H10C10.442 14.4583 10.8659 14.2718 11.1785 13.9397C11.4911 13.6076 11.6667 13.1571 11.6667 12.6875C11.6667 12.2178 11.4911 11.7674 11.1785 11.4353C10.8659 11.1032 10.442 10.9167 10 10.9167H8.33333C7.89131 10.9167 7.46738 11.1032 7.15482 11.4353C6.84226 11.7674 6.66667 12.2178 6.66667 12.6875C6.66667 13.1571 6.84226 13.6076 7.15482 13.9397C7.46738 14.2718 7.89131 14.4583 8.33333 14.4583ZM11.6667 25.0833H8.33333C7.89131 25.0833 7.46738 25.2699 7.15482 25.602C6.84226 25.9341 6.66667 26.3845 6.66667 26.8542C6.66667 27.3238 6.84226 27.7742 7.15482 28.1063C7.46738 28.4384 7.89131 28.625 8.33333 28.625H11.6667C12.1087 28.625 12.5326 28.4384 12.8452 28.1063C13.1577 27.7742 13.3333 27.3238 13.3333 26.8542C13.3333 26.3845 13.1577 25.9341 12.8452 25.602C12.5326 25.2699 12.1087 25.0833 11.6667 25.0833Z" fill="#EB612C"/>
</svg>
