<svg width="34" height="36" viewBox="0 0 34 36" fill="none" xmlns="http://www.w3.org/2000/svg">
<path d="M9.66667 25.0834C10.3297 25.0834 10.9656 24.8035 11.4344 24.3054C11.9033 23.8072 12.1667 23.1316 12.1667 22.4271C12.1748 22.3388 12.1748 22.2498 12.1667 22.1615L16.8167 17.2209H17.2H17.5833L20.2667 20.0719C20.2667 20.0719 20.2667 20.1604 20.2667 20.2136C20.2667 20.918 20.5301 21.5937 20.9989 22.0918C21.4677 22.59 22.1036 22.8698 22.7667 22.8698C23.4297 22.8698 24.0656 22.59 24.5344 22.0918C25.0033 21.5937 25.2667 20.918 25.2667 20.2136V20.0719L31.3333 13.5729C31.8278 13.5729 32.3111 13.4172 32.7223 13.1253C33.1334 12.8334 33.4538 12.4186 33.643 11.9332C33.8322 11.4478 33.8818 10.9137 33.7853 10.3985C33.6888 9.88322 33.4507 9.40992 33.1011 9.03843C32.7515 8.66695 32.306 8.41397 31.8211 8.31148C31.3361 8.20898 30.8334 8.26159 30.3766 8.46263C29.9198 8.66368 29.5294 9.00414 29.2547 9.44095C28.98 9.87777 28.8333 10.3913 28.8333 10.9167C28.8252 11.005 28.8252 11.094 28.8333 11.1823L22.8167 17.575H22.55L19.6667 14.4584C19.6667 13.7539 19.4033 13.0782 18.9344 12.5801C18.4656 12.082 17.8297 11.8021 17.1667 11.8021C16.5036 11.8021 15.8677 12.082 15.3989 12.5801C14.9301 13.0782 14.6667 13.7539 14.6667 14.4584L9.66667 19.7709C9.00362 19.7709 8.36774 20.0507 7.8989 20.5488C7.43006 21.047 7.16667 21.7226 7.16667 22.4271C7.16667 23.1316 7.43006 23.8072 7.8989 24.3054C8.36774 24.8035 9.00362 25.0834 9.66667 25.0834ZM32.1667 32.1667H3.83333V2.06252C3.83333 1.59287 3.65774 1.14245 3.34518 0.810352C3.03262 0.478256 2.60869 0.291687 2.16667 0.291687C1.72464 0.291687 1.30072 0.478256 0.988155 0.810352C0.675595 1.14245 0.5 1.59287 0.5 2.06252V33.9375C0.5 34.4072 0.675595 34.8576 0.988155 35.1897C1.30072 35.5218 1.72464 35.7084 2.16667 35.7084H32.1667C32.6087 35.7084 33.0326 35.5218 33.3452 35.1897C33.6577 34.8576 33.8333 34.4072 33.8333 33.9375C33.8333 33.4679 33.6577 33.0174 33.3452 32.6853C33.0326 32.3533 32.6087 32.1667 32.1667 32.1667Z" fill="#EB612C"/>
</svg>
