<?xml version="1.0" encoding="utf-8"?>
<!-- Generator: Adobe Illustrator 27.9.0, SVG Export Plug-In . SVG Version: 6.00 Build 0)  -->
<svg version="1.1" id="Layer_1" xmlns="http://www.w3.org/2000/svg" xmlns:xlink="http://www.w3.org/1999/xlink" x="0px" y="0px"
	 viewBox="0 0 431 54" style="enable-background:new 0 0 431 54;" xml:space="preserve">
<style type="text/css">
	.st0{fill:#EB612C;}
	.st1{fill:#FFFFFF;}
</style>
<g>
	<rect x="22" y="5" class="st0" width="7.1" height="44"/>
	<g>
		<g>
			<polygon class="st1" points="87.5,48.9 87.5,38.5 68.5,38.5 68.5,31.8 90.2,4.7 97,4.7 97,30.8 103.2,30.8 103.2,38.5 97,38.5 
				97,48.9 			"/>
		</g>
		<polygon class="st1" points="78.4,32.3 87.5,32.3 87.5,22.5 		"/>
	</g>
</g>
<polygon class="st0" points="153.8,49 155.3,5 163.8,5 179.3,36.3 194.6,5 203.1,5 204.3,49 194.5,49 193.9,26.1 182.6,49 175.2,49 
	164,26.3 163.2,49 "/>
<g>
	<polygon class="st1" points="254.9,48.6 274,4.6 282.5,4.6 300.8,48.6 290.5,48.6 287,39.6 268.8,39.6 265.2,48.6 	"/>
	<polygon class="st1" points="272.3,31.2 283.6,31.2 278.1,17 	"/>
</g>
<path class="st0" d="M369.1,49.6c-5.4,0-9.6-1.2-12.6-3.5c-3-2.3-4.7-5.7-5.1-10.2l9.5-1.4c0.2,2.1,1.1,3.8,2.5,5
	c1.4,1.1,3.5,1.7,6,1.7c2.2,0,3.9-0.4,5-1.1c1.2-0.8,1.8-1.9,1.8-3.3c0-1.3-0.6-2.3-1.9-3s-3.3-1.4-6.1-2.1
	c-3.1-0.7-5.6-1.6-7.8-2.7c-2.1-1.1-3.7-2.5-4.8-4.2c-1.1-1.7-1.6-3.8-1.6-6.4c0-2.7,0.7-5.1,2.1-7.3c1.4-2.1,3.4-3.7,5.9-4.9
	c2.5-1.2,5.4-1.8,8.7-1.8c4.3,0,7.8,1.1,10.5,3.3c2.7,2.2,4.3,5.2,4.7,9l-8.9,1.5c-0.3-1.7-1.1-3-2.3-3.9c-1.2-1-2.7-1.4-4.5-1.4
	c-1.8,0-3.3,0.4-4.4,1.3c-1.1,0.8-1.7,2-1.7,3.4c0,1.3,0.5,2.4,1.6,3.2c1.1,0.8,3,1.5,5.9,2.2c3,0.7,5.6,1.6,7.8,2.5
	c2.2,0.9,3.9,2.2,5,3.8c1.2,1.6,1.8,3.8,1.8,6.6c0,2.7-0.7,5.1-2.2,7.1c-1.4,2.1-3.5,3.7-6.1,4.8C375.6,49,372.5,49.6,369.1,49.6z"
	/>
</svg>
