<svg width="543" height="460" viewBox="0 0 543 460" fill="none" xmlns="http://www.w3.org/2000/svg">
<path d="M416.725 72.4221H175.35C169.827 72.4221 165.349 76.895 165.349 82.4126V447.637C165.349 453.155 169.827 457.628 175.35 457.628H416.725C422.248 457.628 426.725 453.155 426.725 447.637V82.4126C426.725 76.895 422.248 72.4221 416.725 72.4221Z" fill="url(#paint0_linear_409_617)"/>
<path d="M413.713 451.275L178.372 451.275C173.975 451.275 170.418 447.71 170.418 443.329L170.418 85.5365C170.418 81.1441 173.986 77.5902 178.372 77.5902L413.713 77.5902C418.11 77.5902 421.667 81.1546 421.667 85.5365L421.667 443.318C421.667 447.71 418.099 451.264 413.713 451.264V451.275Z" fill="#172E52"/>
<path d="M333.699 444.356H258.397C257.116 444.356 256.067 443.308 256.067 442.029C256.067 440.75 257.116 439.701 258.397 439.701H333.699C334.979 439.701 336.029 440.75 336.029 442.029C336.029 443.308 334.979 444.356 333.699 444.356Z" fill="#EB612C"/>
<path d="M411.971 426.555V104.218C411.971 101.178 409.504 98.714 406.462 98.714L185.613 98.714C182.57 98.714 180.104 101.178 180.104 104.218L180.104 426.555C180.104 429.595 182.57 432.059 185.613 432.059H406.462C409.504 432.059 411.971 429.595 411.971 426.555Z" fill="#0A203E"/>
<path d="M285.208 235.205H198.709C195.295 235.205 192.528 237.97 192.528 241.38V309.185C192.528 312.596 195.295 315.36 198.709 315.36H285.208C288.621 315.36 291.388 312.596 291.388 309.185V241.38C291.388 237.97 288.621 235.205 285.208 235.205Z" fill="#172E52"/>
<path d="M390.69 112.258H198.709C195.295 112.258 192.528 115.023 192.528 118.433V219.627C192.528 223.037 195.295 225.802 198.709 225.802H390.69C394.103 225.802 396.871 223.037 396.871 219.627V118.433C396.871 115.023 394.103 112.258 390.69 112.258Z" fill="#172E52"/>
<path d="M211.994 208.767L228.972 196.47L245.605 201.124L264.903 190.484L282.878 174.529L303.519 173.48L322.785 160.313L345.441 156.581L363.868 143.886L378.717 131.977" stroke="#FDFDFF" stroke-miterlimit="10"/>
<path d="M378.381 134.64C379.667 134.64 380.71 133.598 380.71 132.313C380.71 131.027 379.667 129.985 378.381 129.985C377.094 129.985 376.051 131.027 376.051 132.313C376.051 133.598 377.094 134.64 378.381 134.64Z" fill="#0A203E" stroke="white" stroke-miterlimit="10"/>
<path d="M346.102 158.909C347.389 158.909 348.432 157.867 348.432 156.581C348.432 155.296 347.389 154.254 346.102 154.254C344.816 154.254 343.773 155.296 343.773 156.581C343.773 157.867 344.816 158.909 346.102 158.909Z" fill="#0A203E" stroke="white" stroke-miterlimit="10"/>
<path d="M322.806 162.232C323.728 162.232 324.475 161.485 324.475 160.565C324.475 159.644 323.728 158.898 322.806 158.898C321.885 158.898 321.138 159.644 321.138 160.565C321.138 161.485 321.885 162.232 322.806 162.232Z" fill="#0A203E" stroke="white" stroke-miterlimit="10"/>
<path d="M282.878 176.195C283.8 176.195 284.547 175.449 284.547 174.529C284.547 173.608 283.8 172.862 282.878 172.862C281.957 172.862 281.21 173.608 281.21 174.529C281.21 175.449 281.957 176.195 282.878 176.195Z" fill="#0A203E" stroke="white" stroke-miterlimit="10"/>
<path d="M245.605 202.791C246.526 202.791 247.273 202.045 247.273 201.124C247.273 200.204 246.526 199.458 245.605 199.458C244.683 199.458 243.936 200.204 243.936 201.124C243.936 202.045 244.683 202.791 245.605 202.791Z" fill="#0A203E" stroke="white" stroke-miterlimit="10"/>
<path d="M211.668 210.769C212.59 210.769 213.337 210.023 213.337 209.102C213.337 208.182 212.59 207.435 211.668 207.435C210.747 207.435 210 208.182 210 209.102C210 210.023 210.747 210.769 211.668 210.769Z" fill="#0A203E" stroke="white" stroke-miterlimit="10"/>
<path d="M303.509 176.195C304.795 176.195 305.838 175.153 305.838 173.868C305.838 172.583 304.795 171.541 303.509 171.541C302.222 171.541 301.179 172.583 301.179 173.868C301.179 175.153 302.222 176.195 303.509 176.195Z" fill="#0A203E" stroke="white" stroke-miterlimit="10"/>
<path d="M265.574 192.811C266.861 192.811 267.904 191.769 267.904 190.484C267.904 189.199 266.861 188.157 265.574 188.157C264.287 188.157 263.245 189.199 263.245 190.484C263.245 191.769 264.287 192.811 265.574 192.811Z" fill="#0A203E" stroke="white" stroke-miterlimit="10"/>
<path d="M228.972 198.797C230.259 198.797 231.302 197.755 231.302 196.47C231.302 195.185 230.259 194.143 228.972 194.143C227.686 194.143 226.643 195.185 226.643 196.47C226.643 197.755 227.686 198.797 228.972 198.797Z" fill="#0A203E" stroke="white" stroke-miterlimit="10"/>
<path d="M390.69 235.205H304.191C300.777 235.205 298.01 237.97 298.01 241.38V309.185C298.01 312.596 300.777 315.36 304.191 315.36H390.69C394.103 315.36 396.871 312.596 396.871 309.185V241.38C396.871 237.97 394.103 235.205 390.69 235.205Z" fill="#172E52"/>
<path d="M387.279 304.887H307.517V249.945C307.517 249.714 307.706 249.525 307.937 249.525C308.168 249.525 308.357 249.714 308.357 249.945V304.038H387.269C387.5 304.038 387.689 304.227 387.689 304.457C387.689 304.688 387.5 304.877 387.269 304.877L387.279 304.887Z" fill="#FDFDFF"/>
<path d="M324.255 304.457H315.45V287.632H324.255V304.457ZM336.532 283.805H327.728V304.457H336.532V283.805ZM348.81 276.037H340.006V304.468H348.81V276.037ZM361.087 270.607H352.283V304.468H361.087V270.607ZM373.365 258.897H364.561V304.468H373.365V258.897Z" fill="url(#paint1_linear_409_617)"/>
<path d="M443.294 458.005C444.176 458.005 444.963 457.439 445.12 456.632L473.894 304.457C474.062 303.556 473.39 302.707 472.383 302.56C471.375 302.413 470.42 303.011 470.253 303.912L441.479 456.087C441.311 456.988 441.983 457.837 442.99 457.984C443.095 457.995 443.2 458.005 443.305 458.005H443.294Z" fill="white"/>
<path d="M540.371 458.005C540.497 458.005 540.612 457.995 540.738 457.974C541.735 457.795 542.386 456.925 542.186 456.034L508.26 305.841C508.061 304.95 507.085 304.363 506.078 304.552C505.081 304.73 504.43 305.6 504.63 306.491L538.556 456.684C538.734 457.47 539.5 458.005 540.371 458.005Z" fill="white"/>
<path d="M465.247 342.061H514.42C515.438 342.061 516.267 341.327 516.267 340.415C516.267 339.503 515.438 338.769 514.42 338.769H465.247C464.229 338.769 463.4 339.503 463.4 340.415C463.4 341.327 464.229 342.061 465.247 342.061Z" fill="white"/>
<path d="M466.139 342.061H513.528C514.515 342.061 515.312 341.327 515.312 340.415C515.312 339.503 514.515 338.769 513.528 338.769H466.139C465.153 338.769 464.355 339.503 464.355 340.415C464.355 341.327 465.153 342.061 466.139 342.061Z" fill="white"/>
<path d="M465.247 369.579H514.42C515.438 369.579 516.267 368.845 516.267 367.933C516.267 367.021 515.438 366.287 514.42 366.287H465.247C464.229 366.287 463.4 367.021 463.4 367.933C463.4 368.845 464.229 369.579 465.247 369.579Z" fill="white"/>
<path d="M460.777 369.579H520.391C521.409 369.579 522.238 368.845 522.238 367.933C522.238 367.021 521.409 366.287 520.391 366.287H460.777C459.759 366.287 458.93 367.021 458.93 367.933C458.93 368.845 459.759 369.579 460.777 369.579Z" fill="white"/>
<path d="M465.247 397.098H514.42C515.438 397.098 516.267 396.364 516.267 395.452C516.267 394.54 515.438 393.806 514.42 393.806H465.247C464.229 393.806 463.4 394.54 463.4 395.452C463.4 396.364 464.229 397.098 465.247 397.098Z" fill="white"/>
<path d="M455.089 397.098H526.446C527.464 397.098 528.293 396.364 528.293 395.452C528.293 394.54 527.464 393.806 526.446 393.806H455.089C454.071 393.806 453.242 394.54 453.242 395.452C453.242 396.364 454.071 397.098 455.089 397.098Z" fill="white"/>
<path d="M465.247 424.616H532.186C533.204 424.616 534.033 423.882 534.033 422.97C534.033 422.058 533.204 421.324 532.186 421.324H465.247C464.229 421.324 463.4 422.058 463.4 422.97C463.4 423.882 464.229 424.616 465.247 424.616Z" fill="white"/>
<path d="M450.483 424.616H532.186C533.204 424.616 534.033 423.882 534.033 422.97C534.033 422.058 533.204 421.324 532.186 421.324H450.483C449.465 421.324 448.636 422.058 448.636 422.97C448.636 423.882 449.465 424.616 450.483 424.616Z" fill="white"/>
<path d="M509.488 332.238C509.488 332.238 510.685 334.125 510.989 339.419C511.02 339.912 510.622 340.331 510.128 340.331H500.747C500.369 340.331 500.096 339.964 500.222 339.608C500.768 337.983 502.437 334.02 506.141 331.756L509.488 332.248V332.238Z" fill="url(#paint2_linear_409_617)"/>
<path d="M509.897 328.653L509.362 333.098C509.32 333.485 509.016 333.789 508.628 333.831C508.114 333.894 507.368 333.936 506.644 333.81C505.983 333.706 505.511 333.119 505.511 332.448V328.15L509.887 328.642L509.897 328.653Z" fill="url(#paint3_linear_409_617)"/>
<path d="M486.266 331.745C486.266 331.745 488.06 334.534 488.029 338.36C488.029 339.262 487.263 339.985 486.36 339.985H471.785C471.102 339.985 470.83 339.104 471.386 338.717C474.146 336.777 479.571 333.171 483.485 331.745H486.276H486.266Z" fill="url(#paint4_linear_409_617)"/>
<path d="M487.766 326.944L486.633 332.437C486.507 333.056 485.909 333.465 485.29 333.328C484.923 333.244 484.482 333.087 484.01 332.794C483.558 332.511 483.338 331.986 483.433 331.462L484.608 324.805L487.777 326.933L487.766 326.944Z" fill="url(#paint5_linear_409_617)"/>
<path d="M507.809 250.584C507.809 250.584 511.744 254.054 512.489 258.227C513.234 262.399 510.391 330.204 510.391 330.204C510.391 330.204 506.456 330.854 504.42 329.628C504.42 329.628 502.017 285.619 500.18 275.45C500.18 275.45 490.589 321.031 487.924 329.271C487.924 329.271 484.136 329.733 482.908 329.009C482.908 329.009 485.426 269.915 488.574 259.411L507.799 250.574L507.809 250.584Z" fill="url(#paint6_linear_409_617)"/>
<path d="M500.306 273.993C500.306 273.993 500.243 273.993 500.212 273.983C500.002 273.93 499.876 273.721 499.939 273.511L501.607 267.106C501.628 267.011 501.691 266.928 501.775 266.875L505.385 264.558C505.564 264.443 505.805 264.495 505.92 264.674C506.036 264.852 505.983 265.093 505.805 265.208L502.321 267.441L500.684 273.7C500.642 273.878 500.485 273.993 500.306 273.993Z" fill="url(#paint7_linear_409_617)"/>
<path d="M468.962 211.408C485.531 210.035 489.865 213.463 489.865 213.463L481.9 226.022C481.9 226.022 465.614 225.697 453.945 216.713C456.128 214.365 457.65 211.765 458.615 209.742C461.627 210.989 465.09 211.723 468.951 211.398L468.962 211.408Z" fill="#1A4289"/>
<path d="M443.011 187.108C443.032 186.574 443.756 186.437 443.976 186.909L446.096 191.417C446.505 192.287 446.631 193.262 446.474 194.216L445.729 196.837C445.508 198.116 445.844 199.426 446.652 200.443C448.594 202.875 452.739 207.299 458.625 209.752C457.65 211.775 456.139 214.375 453.956 216.723C449.674 213.432 446.012 208.966 444.008 202.928C443.042 202.634 442.402 201.732 442.444 200.726L443.021 187.119L443.011 187.108Z" fill="#F9D7CF"/>
<path d="M463.505 218.694C469.34 212.415 480.452 209.574 486.885 208.41C489.708 207.897 492.478 209.469 493.485 212.153C496.382 219.931 504.252 240.164 505.784 243.634C507.033 246.485 508.344 249.274 509.173 251.014C509.667 252.052 509.236 253.299 508.198 253.803C502.783 256.413 493.045 259.359 489.089 260.512C488.218 260.763 487.357 260.114 487.357 259.212C487.357 258.447 487.147 257.692 486.749 257.031L471.795 232.134C462.477 242.46 454.313 243.403 448.037 241.139C449.087 237.879 449.779 234.618 450.115 231.358C459.381 229.775 463.505 218.694 463.505 218.694Z" fill="#1A4289"/>
<path d="M434.805 229.618L436.474 227.395C441.888 231.106 446.411 231.987 450.115 231.358C449.779 234.629 449.097 237.889 448.038 241.139C439.779 238.162 434.795 229.618 434.795 229.618H434.805Z" fill="#F9D7CF"/>
<path d="M435.98 229.66L426.557 230.027L417.889 225.183C419.138 224.408 426.179 226.001 426.179 226.001C426.179 226.001 433.535 224.89 435.529 224.89C437.187 224.89 436.946 227.259 436.82 228.066C436.799 228.234 436.767 228.328 436.767 228.328L435.98 229.66Z" fill="#F9D7CF"/>
<path d="M478.039 196.868L483.013 208.987C483.013 208.987 477.304 212.939 472.708 212.562L470.231 201.67L478.049 196.879L478.039 196.868Z" fill="#F9D7CF"/>
<path d="M469.644 188.608C469.528 188.765 466.045 201.334 466.045 201.334L473.264 203.169L478.333 191.752C478.333 191.752 471.543 185.913 469.633 188.608H469.644Z" fill="#F9D7CF"/>
<path d="M475.625 193.493L473.432 199.709C473.401 199.793 473.369 199.866 473.317 199.929C473.023 200.349 471.89 201.732 470.536 200.485C469.319 199.353 468.185 198.346 467.146 198.158C466.674 198.074 466.223 198.357 466.097 198.818C465.782 199.961 465.121 202.55 464.88 204.877C464.827 205.349 465.163 205.779 465.625 205.873C467.031 206.146 470.032 206.618 472.53 206.45C472.865 206.429 473.17 206.219 473.306 205.915C473.999 204.416 476.108 199.856 476.885 198.671C477.619 197.56 479.424 197.592 480.179 197.665C480.431 197.686 480.673 197.602 480.862 197.445C481.523 196.868 482.782 195.38 481.009 193.608C480.641 193.241 480.652 192.644 481.029 192.277C481.796 191.564 482.604 190.295 481.334 188.723C480.043 187.129 478.343 187.381 477.304 187.758C476.885 187.916 476.423 187.737 476.192 187.35C476.066 187.129 475.835 186.962 475.436 186.993C474.901 187.035 474.46 186.595 474.471 186.06C474.492 185.033 474.125 183.743 472.341 183.188C469.182 182.202 467.22 185.253 467.02 187.528C466.821 189.803 470.305 190.673 472.351 190.515C473.904 190.4 475.059 191.941 475.531 192.686C475.678 192.927 475.709 193.21 475.615 193.472L475.625 193.493Z" fill="url(#paint8_linear_409_617)"/>
<path d="M476.056 200.936C476.056 200.936 476.57 196.994 478.207 196.795C479.854 196.606 481.449 197.948 479.812 200.16C477.776 202.917 476.056 200.925 476.056 200.925V200.936Z" fill="#F9D7CF"/>
<path d="M400.165 226.578L404.552 221.997C407.459 222.584 410.481 222.72 413.503 222.332L417.522 227.228C417.658 227.395 417.9 227.458 418.11 227.385L425.245 224.743C425.455 224.67 425.592 224.46 425.581 224.24L425.434 217.908C427.974 216.22 430.177 214.155 432.003 211.817L438.32 212.436C438.541 212.457 438.751 212.341 438.845 212.132L442.025 205.223C442.119 205.024 442.067 204.783 441.909 204.626L437.323 200.244C437.911 197.34 438.048 194.321 437.659 191.302L442.56 187.287C442.728 187.15 442.791 186.909 442.717 186.7L440.073 179.571C439.999 179.361 439.789 179.225 439.569 179.236L433.231 179.382C431.541 176.845 429.474 174.644 427.134 172.82L427.753 166.509C427.774 166.289 427.659 166.079 427.449 165.985L420.534 162.808C420.334 162.714 420.093 162.766 419.936 162.924L415.549 167.505C412.642 166.918 409.62 166.781 406.598 167.169L402.579 162.274C402.443 162.106 402.201 162.043 401.991 162.116L394.856 164.758C394.646 164.832 394.509 165.041 394.52 165.261L394.667 171.593C392.127 173.281 389.924 175.346 388.098 177.684L381.781 177.065C381.56 177.045 381.35 177.16 381.256 177.37L378.076 184.278C377.982 184.477 378.034 184.718 378.192 184.875L382.778 189.257C382.19 192.161 382.054 195.18 382.442 198.2L377.541 202.215C377.373 202.351 377.31 202.592 377.384 202.802L380.028 209.93C380.102 210.14 380.312 210.276 380.532 210.266L386.87 210.119C388.56 212.656 390.627 214.857 392.967 216.682L392.348 222.992C392.327 223.213 392.442 223.422 392.652 223.517L399.567 226.693C399.767 226.787 400.008 226.735 400.165 226.578Z" fill="#0A203E" stroke="#EB612C" stroke-width="2" stroke-miterlimit="10"/>
<path d="M410.061 202.016C407.742 202.016 405.465 200.915 404.059 198.871C401.781 195.568 402.621 191.029 405.926 188.765C407.532 187.664 409.463 187.255 411.373 187.601C413.283 187.958 414.941 189.027 416.042 190.631C417.144 192.235 417.553 194.164 417.207 196.072C416.85 197.98 415.78 199.636 414.174 200.737C412.915 201.596 411.478 202.016 410.061 202.016ZM410.04 188.513C408.791 188.513 407.574 188.891 406.514 189.614C403.681 191.564 402.957 195.453 404.909 198.284C406.86 201.114 410.754 201.837 413.587 199.887C416.42 197.938 417.144 194.048 415.192 191.218C414.248 189.845 412.821 188.922 411.184 188.618C410.806 188.545 410.418 188.513 410.04 188.513Z" fill="#EB612C"/>
<g opacity="0.64">
<path d="M386.534 229.377C386.272 229.377 386.02 229.303 385.789 229.146C385.212 228.737 384.635 228.307 384.079 227.878C383.512 227.437 383.418 226.62 383.858 226.064C384.299 225.498 385.118 225.404 385.674 225.844C386.199 226.253 386.734 226.651 387.279 227.039C387.867 227.448 388.003 228.255 387.594 228.842C387.342 229.198 386.944 229.387 386.534 229.387V229.377Z" fill="url(#paint9_linear_409_617)"/>
<path d="M379.818 223.433C379.462 223.433 379.115 223.286 378.853 223.003C377.877 221.923 376.943 220.78 376.083 219.596C375.663 219.019 375.789 218.212 376.366 217.793C376.943 217.373 377.751 217.499 378.171 218.076C378.979 219.187 379.86 220.256 380.773 221.273C381.256 221.808 381.214 222.615 380.679 223.097C380.427 223.317 380.123 223.433 379.808 223.433H379.818ZM373.533 214.239C373.06 214.239 372.599 213.977 372.378 213.526C371.728 212.216 371.13 210.863 370.626 209.501C370.374 208.83 370.71 208.085 371.381 207.834C372.053 207.582 372.798 207.918 373.05 208.589C373.533 209.867 374.089 211.136 374.697 212.362C375.012 213.002 374.76 213.778 374.12 214.092C373.931 214.187 373.732 214.228 373.543 214.228L373.533 214.239ZM369.954 203.693C369.346 203.693 368.8 203.263 368.685 202.645C368.412 201.208 368.212 199.751 368.086 198.294C368.023 197.581 368.559 196.963 369.272 196.9C369.986 196.837 370.605 197.371 370.668 198.084C370.783 199.447 370.972 200.82 371.224 202.162C371.36 202.865 370.899 203.536 370.196 203.672C370.112 203.682 370.028 203.693 369.954 203.693ZM369.388 192.57C369.388 192.57 369.314 192.57 369.272 192.57C368.559 192.507 368.034 191.878 368.097 191.176C368.223 189.719 368.422 188.262 368.695 186.825C368.832 186.123 369.514 185.662 370.206 185.798C370.909 185.934 371.371 186.605 371.235 187.308C370.972 188.649 370.783 190.023 370.668 191.386C370.605 192.056 370.049 192.57 369.377 192.57H369.388ZM371.843 181.71C371.696 181.71 371.539 181.678 371.392 181.626C370.72 181.374 370.385 180.63 370.636 179.959C371.151 178.596 371.738 177.244 372.389 175.933C372.704 175.294 373.48 175.032 374.12 175.357C374.76 175.671 375.023 176.447 374.697 177.086C374.089 178.313 373.533 179.581 373.05 180.86C372.851 181.385 372.357 181.699 371.833 181.699L371.843 181.71ZM377.142 171.918C376.88 171.918 376.607 171.834 376.376 171.667C375.799 171.247 375.673 170.44 376.104 169.864C376.964 168.689 377.898 167.547 378.884 166.467C379.367 165.943 380.186 165.901 380.71 166.383C381.235 166.865 381.277 167.683 380.794 168.207C379.871 169.214 379 170.293 378.181 171.394C377.93 171.74 377.531 171.918 377.132 171.918H377.142ZM384.908 163.93C384.519 163.93 384.142 163.762 383.89 163.437C383.449 162.871 383.554 162.064 384.11 161.624C384.782 161.1 385.485 160.586 386.198 160.093C386.692 159.758 387.206 159.422 387.71 159.097C388.318 158.72 389.116 158.898 389.493 159.506C389.871 160.114 389.693 160.911 389.084 161.288C388.612 161.582 388.129 161.896 387.668 162.221C386.996 162.683 386.345 163.165 385.705 163.657C385.464 163.846 385.191 163.93 384.908 163.93ZM394.541 158.322C394.037 158.322 393.555 158.017 393.345 157.525C393.072 156.864 393.387 156.11 394.048 155.837C395.401 155.281 396.797 154.789 398.193 154.38C398.885 154.181 399.599 154.569 399.798 155.26C399.998 155.942 399.609 156.665 398.917 156.864C397.605 157.252 396.293 157.713 395.024 158.227C394.866 158.29 394.698 158.322 394.53 158.322H394.541Z" fill="url(#paint10_linear_409_617)"/>
<path d="M405.349 155.543C404.699 155.543 404.143 155.061 404.069 154.401C403.985 153.688 404.499 153.048 405.202 152.965C405.906 152.881 406.619 152.818 407.333 152.776C408.046 152.734 408.665 153.269 408.707 153.981C408.749 154.694 408.214 155.313 407.501 155.355C406.829 155.397 406.157 155.46 405.507 155.533C405.454 155.533 405.402 155.533 405.36 155.533L405.349 155.543Z" fill="url(#paint11_linear_409_617)"/>
</g>
<g opacity="0.64">
<path d="M437.848 166.184C437.533 166.184 437.219 166.069 436.967 165.838C436.484 165.387 435.98 164.936 435.466 164.507C434.921 164.045 434.847 163.228 435.309 162.683C435.77 162.137 436.589 162.064 437.135 162.525C437.68 162.987 438.216 163.458 438.73 163.941C439.254 164.423 439.286 165.24 438.793 165.765C438.541 166.037 438.195 166.173 437.848 166.173V166.184Z" fill="url(#paint12_linear_409_617)"/>
<path d="M419.61 235.688C419.023 235.688 418.498 235.289 418.351 234.702C418.183 234.01 418.613 233.308 419.306 233.14C420.618 232.826 421.919 232.438 423.199 231.987C423.871 231.746 424.616 232.102 424.847 232.773C425.088 233.444 424.731 234.189 424.06 234.419C422.706 234.901 421.31 235.31 419.915 235.646C419.81 235.667 419.715 235.677 419.61 235.677V235.688ZM438.625 225.162C438.289 225.162 437.953 225.037 437.701 224.775C437.198 224.261 437.208 223.443 437.722 222.951C438.688 222.007 439.611 221.011 440.472 219.973C440.933 219.428 441.741 219.344 442.297 219.806C442.843 220.267 442.927 221.074 442.465 221.63C441.552 222.73 440.566 223.8 439.538 224.806C439.286 225.047 438.961 225.173 438.635 225.173L438.625 225.162ZM450.86 195.516C450.157 195.516 449.57 194.95 449.57 194.237C449.559 192.895 449.465 191.532 449.318 190.191C449.234 189.478 449.748 188.838 450.451 188.754C451.165 188.67 451.805 189.184 451.889 189.886C452.057 191.312 452.141 192.759 452.162 194.195C452.162 194.908 451.595 195.495 450.881 195.505H450.871L450.86 195.516ZM449.255 184.676C448.699 184.676 448.174 184.309 448.017 183.743C447.639 182.454 447.198 181.164 446.684 179.917C446.411 179.257 446.736 178.502 447.397 178.229C448.059 177.957 448.814 178.282 449.087 178.942C449.633 180.273 450.105 181.647 450.504 183.02C450.703 183.701 450.304 184.425 449.622 184.624C449.507 184.655 449.381 184.676 449.265 184.676H449.255ZM444.805 174.665C444.375 174.665 443.945 174.445 443.704 174.046C443.357 173.491 442.99 172.925 442.612 172.38C442.224 171.813 441.815 171.258 441.395 170.713C440.965 170.147 441.07 169.339 441.636 168.899C442.203 168.469 443.011 168.574 443.452 169.14C443.893 169.717 444.333 170.314 444.743 170.922C445.141 171.499 445.53 172.096 445.897 172.694C446.275 173.302 446.086 174.099 445.477 174.476C445.267 174.602 445.026 174.665 444.795 174.665H444.805Z" fill="url(#paint13_linear_409_617)"/>
<path d="M410.796 236.809C410.093 236.809 409.515 236.243 409.505 235.541C409.494 234.828 410.061 234.241 410.775 234.23C411.436 234.22 412.107 234.188 412.779 234.147C413.492 234.105 414.112 234.639 414.154 235.352C414.206 236.065 413.66 236.683 412.947 236.725C412.233 236.778 411.52 236.809 410.817 236.82H410.796V236.809Z" fill="url(#paint14_linear_409_617)"/>
</g>
<path d="M407.448 175.881C407.7 175.881 407.92 176.07 407.962 176.321C407.962 176.342 407.962 176.374 407.962 176.395C407.962 176.646 407.773 176.866 407.522 176.908C406.273 177.086 405.035 177.401 403.838 177.841C395.296 181.007 390.606 190.065 392.684 198.703C392.851 199.395 393.061 200.076 393.313 200.768C396.734 209.983 407.028 214.711 416.263 211.283C420.733 209.626 424.29 206.335 426.284 202.005C427.376 199.636 427.921 197.109 427.921 194.572C427.921 192.476 427.543 190.379 426.798 188.366C425.676 185.337 423.755 182.674 421.237 180.661C421.111 180.556 421.048 180.41 421.048 180.252C421.048 180.137 421.09 180.022 421.163 179.927C421.342 179.707 421.667 179.665 421.887 179.844C424.542 181.972 426.578 184.792 427.774 187.999C428.572 190.138 428.96 192.35 428.96 194.562C428.96 197.246 428.383 199.919 427.229 202.424C425.119 207.006 421.363 210.496 416.63 212.247C406.86 215.864 395.979 210.874 392.358 201.114C391.561 198.954 391.183 196.753 391.183 194.572C391.183 186.909 395.895 179.676 403.503 176.856C404.667 176.426 405.864 176.112 407.081 175.912L407.196 175.891C407.27 175.881 407.333 175.87 407.406 175.86C407.427 175.86 407.459 175.86 407.48 175.86L407.448 175.881Z" fill="url(#paint15_linear_409_617)"/>
<path d="M223.789 452.449H51.7664C50.2238 452.449 48.9856 453.696 48.9856 455.227C48.9856 456.757 50.2343 458.005 51.7664 458.005H223.789C225.331 458.005 226.569 456.757 226.569 455.227C226.569 453.696 225.321 452.449 223.789 452.449Z" fill="#0A203E" stroke="#E1F0FF" stroke-width="2" stroke-miterlimit="10"/>
<path d="M199.422 424.165H76.1327C72.4179 424.165 69.4062 427.174 69.4062 430.885V452.449H206.159V430.885C206.159 427.174 203.148 424.165 199.433 424.165H199.422Z" fill="#0A203E" stroke="#E1F0FF" stroke-width="2" stroke-miterlimit="10"/>
<path d="M190.303 412.151H85.2516C81.5368 412.151 78.5251 415.16 78.5251 418.871V424.165H197.03V418.871C197.03 415.16 194.018 412.151 190.303 412.151Z" fill="#EB612C"/>
<path d="M109.502 376.708H166.053C167.91 376.708 169.421 378.217 169.421 380.073V412.141H106.134V380.073C106.134 378.217 107.645 376.708 109.502 376.708Z" fill="#0A203E" stroke="#EB612C" stroke-width="2" stroke-miterlimit="10"/>
<path d="M95.3884 447.669H86.6997V430.036H95.3884V447.669ZM101.989 430.036H98.4946V447.669H101.989V430.036ZM106.91 430.036H103.416V447.669H106.91V430.036ZM111.832 430.036H108.338V447.669H111.832V430.036Z" fill="url(#paint16_linear_409_617)"/>
<path d="M34.5778 275.335C33.0352 276.75 32.8988 279.14 34.2735 280.723L120.877 381.75C122.305 383.396 124.823 383.543 126.429 382.065L133.795 375.292L38.4185 271.792L34.5778 275.325V275.335Z" fill="#0A203E" stroke="#EB612C" stroke-width="2" stroke-miterlimit="10"/>
<path d="M46.4357 242.879C43.4869 239.807 38.6179 239.661 35.4908 242.544L27.7255 249.693C24.5879 252.576 24.3466 257.43 27.1588 260.617L130.49 378.333L152.149 358.404C153.901 356.79 153.985 354.043 152.327 352.334L46.4357 242.879Z" fill="#0A203E" stroke="#E1F0FF" stroke-width="2" stroke-miterlimit="10"/>
<path d="M53.8513 267.532L53.0408 268.278C50.5254 270.592 50.364 274.505 52.6802 277.017L107.215 336.182C109.531 338.694 113.448 338.856 115.963 336.542L116.774 335.796C119.289 333.482 119.451 329.569 117.134 327.056L62.5996 267.892C60.2834 265.379 56.3666 265.218 53.8513 267.532Z" fill="#003E66"/>
<path d="M150.56 393.886C164.276 387.232 169.996 370.73 163.336 357.028C156.675 343.325 140.157 337.61 126.441 344.264C112.724 350.918 107.004 367.42 113.664 381.123C120.325 394.825 136.843 400.54 150.56 393.886Z" fill="#EB612C"/>
<path d="M159.575 369.302C159.705 357.665 150.368 348.126 138.72 347.996C127.072 347.867 117.523 357.194 117.393 368.831C117.263 380.468 126.6 390.006 138.249 390.136C149.897 390.266 159.445 380.938 159.575 369.302Z" fill="#0A203E"/>
<path d="M33.3918 249.442L38.838 255.354C40.0238 256.644 42.0491 256.696 43.3083 255.469L119.303 180.336C120.51 179.162 120.562 177.244 119.419 176.007L116.575 172.925L33.3918 249.442Z" fill="#0A203E" stroke="#EB612C" stroke-width="2" stroke-miterlimit="10"/>
<path d="M120.856 149.704L126.596 155.931C128.915 158.447 128.79 162.347 126.324 164.716L35.8369 252.094L19.8236 234.713C18.5224 233.308 18.6379 231.106 20.086 229.838L112.084 149.243C114.644 146.979 118.548 147.178 120.867 149.694L120.856 149.704Z" fill="#0A203E" stroke="#E1F0FF" stroke-width="2" stroke-miterlimit="10"/>
<path d="M94.6539 170.828L44.9245 216.566C42.7209 218.59 42.5844 222.018 44.6097 224.209C46.635 226.41 50.0664 226.546 52.2596 224.523L101.989 178.785C104.193 176.762 104.329 173.334 102.304 171.143C100.278 168.941 96.847 168.805 94.6539 170.828Z" fill="#003E66"/>
<path d="M40.6412 263.635C51.4041 257.8 55.3938 244.353 49.5525 233.601C43.7111 222.848 30.2508 218.863 19.4879 224.698C8.72503 230.534 4.73534 243.981 10.5767 254.733C16.418 265.485 29.8784 269.471 40.6412 263.635Z" fill="#EB612C"/>
<path d="M46.4298 248.421C48.7829 239.377 43.3514 230.139 34.2984 227.789C25.2453 225.438 15.9987 230.864 13.6457 239.908C11.2926 248.952 16.724 258.189 25.7771 260.54C34.8302 262.891 44.0767 257.465 46.4298 248.421Z" fill="#0A203E"/>
<path d="M188.866 186.815L185.403 192.497C184.007 194.793 181.489 195.82 179.726 194.814L114.802 158.164L124.445 142.324C125.232 141.035 126.659 140.49 127.604 141.108L188.31 180.714C190.01 181.814 190.261 184.519 188.866 186.815Z" fill="#0A203E" stroke="#E1F0FF" stroke-width="2" stroke-miterlimit="10"/>
<path d="M128.232 167.772C137.486 165.187 142.89 155.598 140.303 146.353C137.716 137.108 128.117 131.709 118.863 134.294C109.609 136.878 104.204 146.468 106.791 155.713C109.379 164.958 118.978 170.357 128.232 167.772Z" fill="#EB612C"/>
<path d="M128.434 163.392C135.262 160.694 138.608 152.977 135.907 146.156C133.206 139.335 125.482 135.992 118.654 138.69C111.825 141.388 108.479 149.105 111.18 155.926C113.881 162.748 121.605 166.09 128.434 163.392Z" fill="#0A203E"/>
<path d="M236.947 207.865L240.001 204.259L219.853 179.781L206.915 189.111C206.149 188.251 205.257 187.517 204.281 186.941L205.582 184.792C205.918 184.246 205.708 183.513 205.12 183.156L199.464 179.749C198.877 179.393 198.132 179.55 197.796 180.106L196.484 182.276L190.828 178.869C190.555 178.701 190.198 178.795 190.03 179.068L178.834 197.613C178.666 197.885 178.76 198.242 179.033 198.409L184.689 201.816L183.126 204.395C182.79 204.94 183 205.674 183.587 206.031L189.243 209.438C189.831 209.794 190.576 209.637 190.912 209.081L192.654 206.198C193.64 206.796 194.711 207.247 195.833 207.519L193.819 223.527L224.974 229.45L226.674 225.047L200.797 218.443L202.287 207.194C202.287 207.194 202.371 207.163 202.413 207.152C207.481 205.276 210.399 200.139 209.643 194.992L218.72 188.356L236.937 207.876L236.947 207.865Z" fill="#EB612C"/>
<g opacity="0.64">
<path d="M112.052 97.6028C111.674 97.3931 111.412 97.0053 111.381 96.544C111.339 95.8416 111.307 95.1497 111.276 94.4473C111.255 93.7345 111.811 93.1369 112.524 93.1055C113.238 93.074 113.836 93.6401 113.868 94.353C113.889 95.0344 113.931 95.7053 113.962 96.3867C114.004 97.0996 113.469 97.7181 112.755 97.76C112.503 97.7705 112.262 97.7181 112.052 97.6028Z" fill="url(#paint17_linear_409_617)"/>
<path d="M111.979 88.9436C111.559 88.713 111.286 88.2622 111.307 87.7486C111.37 86.3753 111.465 85.002 111.591 83.6391C111.654 82.9263 112.294 82.4021 112.997 82.4755C113.71 82.5489 114.235 83.1779 114.162 83.8802C114.036 85.2011 113.941 86.543 113.889 87.8639C113.857 88.5767 113.249 89.1323 112.535 89.1009C112.336 89.1009 112.136 89.038 111.969 88.9436H111.979ZM113.144 78.3661C112.672 78.104 112.388 77.5694 112.493 77.0033C112.735 75.6614 113.007 74.2986 113.312 72.9672C113.469 72.2753 114.162 71.835 114.865 71.9923C115.557 72.1495 115.998 72.8414 115.841 73.5438C115.547 74.8332 115.284 76.1541 115.054 77.454C114.928 78.1564 114.256 78.6282 113.553 78.5024C113.406 78.4814 113.28 78.429 113.154 78.3661H113.144ZM115.662 68.0191C115.127 67.7256 114.865 67.0966 115.043 66.4991C115.452 65.1887 115.904 63.8783 116.365 62.5993C116.607 61.9284 117.352 61.5825 118.023 61.8341C118.695 62.0857 119.041 62.8195 118.789 63.4904C118.338 64.7274 117.897 66.0064 117.509 67.2748C117.299 67.9563 116.575 68.3336 115.893 68.124C115.809 68.103 115.736 68.0611 115.662 68.0191ZM119.482 58.0811C118.894 57.7561 118.642 57.0327 118.926 56.4038C119.503 55.1562 120.112 53.9192 120.741 52.7032C121.066 52.0742 121.854 51.8226 122.483 52.1581C123.123 52.483 123.365 53.2693 123.029 53.8983C122.42 55.0724 121.822 56.278 121.266 57.4835C120.972 58.1335 120.196 58.4165 119.545 58.1125C119.513 58.102 119.492 58.0915 119.461 58.0706L119.482 58.0811ZM124.561 48.7196C124.561 48.7196 124.519 48.6881 124.487 48.6776C123.879 48.3002 123.7 47.5035 124.078 46.8955C124.802 45.7423 125.579 44.5787 126.366 43.457C126.775 42.8699 127.583 42.7232 128.171 43.1425C128.758 43.5513 128.895 44.3585 128.485 44.9456C127.719 46.0359 126.974 47.1576 126.271 48.2793C125.904 48.8558 125.149 49.055 124.561 48.73V48.7196ZM185.844 10.7494C185.487 10.5502 185.225 10.1833 185.172 9.74299C185.099 9.03013 185.613 8.40114 186.326 8.32776C187.68 8.19148 189.065 8.08665 190.429 8.01326C191.143 7.97133 191.752 8.52694 191.794 9.2398C191.836 9.95266 191.279 10.5607 190.566 10.6026C189.244 10.676 187.9 10.7808 186.589 10.9066C186.316 10.9381 186.064 10.8752 185.833 10.7599L185.844 10.7494ZM196.484 10.3615C196.075 10.1309 195.792 9.69058 195.813 9.18738C195.834 8.47452 196.432 7.90843 197.145 7.9294C198.51 7.97133 199.905 8.04471 201.269 8.14954C201.983 8.20196 202.518 8.83095 202.455 9.54381C202.403 10.2567 201.773 10.7913 201.059 10.7284C199.737 10.6236 198.394 10.5502 197.072 10.5187C196.862 10.5187 196.663 10.4559 196.484 10.3615ZM207.093 11.3574C206.621 11.1058 206.348 10.5712 206.432 10.0156C206.548 9.31318 207.209 8.83095 207.912 8.94627C209.265 9.16642 210.63 9.41801 211.962 9.70106C212.665 9.84782 213.106 10.5292 212.959 11.2316C212.812 11.934 212.13 12.3743 211.427 12.2275C210.126 11.9549 208.804 11.7138 207.492 11.5042C207.345 11.4832 207.198 11.4308 207.072 11.3574H207.093ZM248.774 31.0029C248.69 30.961 248.606 30.8981 248.533 30.8352C247.536 29.9546 246.507 29.0845 245.479 28.2563C244.923 27.8056 244.828 26.9984 245.28 26.4427C245.731 25.8871 246.539 25.7928 247.095 26.2436C248.165 27.0927 249.225 27.9943 250.254 28.8958C250.789 29.3676 250.841 30.1852 250.359 30.7199C249.949 31.1812 249.288 31.2755 248.774 31.0029ZM217.472 13.7161C216.947 13.4331 216.674 12.8146 216.852 12.217C217.052 11.5356 217.776 11.1373 218.458 11.3364L218.962 11.4832C220.105 11.8292 221.26 12.1961 222.383 12.5944C223.054 12.8355 223.411 13.5694 223.18 14.2403C222.949 14.9112 222.204 15.2676 221.533 15.037C220.441 14.6596 219.318 14.2927 218.217 13.9572L217.734 13.8105C217.639 13.779 217.555 13.7476 217.482 13.7056L217.472 13.7161ZM240.358 24.4824C240.358 24.4824 240.285 24.4405 240.253 24.4195C239.151 23.6752 238.018 22.9518 236.885 22.2599C236.276 21.893 236.077 21.0963 236.444 20.4883C236.811 19.8803 237.619 19.6916 238.217 20.048C239.393 20.7608 240.558 21.5052 241.691 22.2704C242.278 22.6688 242.436 23.476 242.037 24.0631C241.659 24.6187 240.925 24.7864 240.348 24.4719L240.358 24.4824ZM227.482 17.3748C226.895 17.0603 226.643 16.3369 226.916 15.7184C227.199 15.0685 227.965 14.7644 228.626 15.058C229.875 15.6136 231.134 16.2006 232.362 16.8087C232.992 17.1337 233.264 17.9094 232.939 18.5489C232.624 19.1884 231.837 19.4504 231.197 19.1255C230.011 18.5279 228.794 17.9618 227.577 17.4272C227.545 17.4167 227.514 17.3957 227.482 17.3748Z" fill="url(#paint18_linear_409_617)"/>
<path d="M254.976 37.0937C254.85 37.0308 254.734 36.9365 254.64 36.8316C254.178 36.3284 253.716 35.8357 253.244 35.343C252.751 34.8293 252.761 34.0116 253.286 33.5189C253.8 33.0262 254.619 33.0472 255.112 33.5609C255.595 34.0641 256.077 34.5777 256.55 35.0914C257.032 35.6156 256.99 36.4333 256.466 36.9155C256.046 37.2929 255.448 37.3558 254.976 37.0937Z" fill="url(#paint19_linear_409_617)"/>
</g>
<path d="M229.476 167.893C228.825 168.176 228.059 167.893 227.776 167.232C227.482 166.582 227.776 165.817 228.437 165.524C229.696 164.968 230.966 164.37 232.194 163.752C232.834 163.427 233.611 163.689 233.936 164.328C234.261 164.968 233.999 165.744 233.359 166.069C232.089 166.708 230.777 167.327 229.476 167.903V167.893ZM223.085 170.398C223.085 170.398 223.022 170.43 222.981 170.44C221.637 170.901 220.252 171.342 218.888 171.73C218.206 171.929 217.482 171.53 217.282 170.849C217.083 170.168 217.482 169.444 218.164 169.245C219.486 168.868 220.829 168.448 222.131 167.998C222.802 167.767 223.547 168.123 223.778 168.794C223.998 169.434 223.684 170.136 223.075 170.398H223.085ZM239.288 162.756C238.7 163.008 238.007 162.808 237.661 162.242C237.283 161.634 237.483 160.838 238.091 160.46C239.267 159.737 240.442 158.982 241.575 158.196C242.163 157.797 242.971 157.944 243.37 158.531C243.779 159.118 243.621 159.925 243.034 160.324C241.859 161.131 240.652 161.917 239.435 162.662C239.382 162.693 239.33 162.724 239.277 162.745L239.288 162.756ZM212.392 173.281C212.308 173.323 212.214 173.344 212.12 173.365C210.724 173.638 209.297 173.889 207.891 174.088C207.188 174.193 206.526 173.7 206.422 172.998C206.317 172.296 206.81 171.635 207.513 171.53C208.877 171.331 210.262 171.101 211.605 170.828C212.308 170.692 212.991 171.143 213.127 171.845C213.242 172.453 212.928 173.04 212.382 173.281H212.392ZM248.333 156.351C247.808 156.581 247.189 156.445 246.812 155.984C246.36 155.428 246.444 154.611 247 154.16C248.071 153.29 249.131 152.378 250.159 151.455C250.694 150.973 251.513 151.015 251.985 151.549C252.468 152.084 252.426 152.902 251.89 153.373C250.831 154.327 249.739 155.26 248.637 156.162C248.543 156.235 248.449 156.298 248.344 156.34L248.333 156.351ZM256.434 148.803C255.972 149.002 255.416 148.929 255.028 148.562C254.503 148.069 254.482 147.251 254.965 146.738C255.91 145.731 256.833 144.693 257.725 143.635C258.187 143.089 259.005 143.016 259.551 143.477C260.096 143.939 260.17 144.756 259.708 145.301C258.785 146.392 257.83 147.461 256.854 148.499C256.728 148.635 256.581 148.729 256.434 148.803ZM263.444 140.238C263.045 140.416 262.562 140.385 262.174 140.112C261.587 139.703 261.45 138.896 261.87 138.309C262.667 137.187 263.444 136.034 264.189 134.871C264.577 134.273 265.375 134.084 265.973 134.472C266.582 134.86 266.76 135.657 266.372 136.254C265.606 137.449 264.808 138.645 263.979 139.808C263.843 140.007 263.654 140.154 263.444 140.249V140.238Z" fill="#EB612C"/>
<path d="M141.518 125.352C141.707 125.729 142.117 125.949 142.526 125.897L154.447 124.356C158.025 128.675 162.317 132.459 167.228 135.5L167.312 147.503C167.312 147.922 167.585 148.3 167.983 148.436L181.646 153.038C182.045 153.174 182.486 153.038 182.748 152.703L190.083 143.194C195.833 143.739 201.542 143.32 207.009 142.041L215.572 150.47C215.876 150.763 216.328 150.837 216.705 150.648L229.623 144.243C230.001 144.054 230.221 143.645 230.169 143.236L228.626 131.327C232.949 127.752 236.738 123.465 239.781 118.559L251.796 118.475C252.216 118.475 252.594 118.202 252.73 117.804L257.337 104.155C257.473 103.756 257.337 103.316 257.001 103.054L247.483 95.7263C248.029 89.9815 247.609 84.2786 246.329 78.8169L254.766 70.2626C255.06 69.9586 255.133 69.5078 254.944 69.1304L248.532 56.2256C248.344 55.8482 247.934 55.628 247.525 55.6804L235.604 57.2215C232.026 52.9024 227.734 49.1179 222.823 46.0778L222.739 34.0745C222.739 33.6552 222.466 33.2778 222.068 33.1415L208.405 28.5394C208.006 28.4031 207.565 28.5394 207.303 28.8749L199.968 38.3831C194.217 37.838 188.509 38.2573 183.042 39.5363L174.479 31.1078C174.175 30.8143 173.723 30.7409 173.346 30.9296L160.428 37.3348C160.05 37.5235 159.83 37.9324 159.882 38.3412L161.425 50.2501C157.101 53.8249 153.313 58.1125 150.27 63.0187L138.255 63.1025C137.835 63.1025 137.457 63.3751 137.331 63.7735L132.725 77.4226C132.588 77.821 132.725 78.2613 133.061 78.5233L142.578 85.8511C142.033 91.5959 142.452 97.2988 143.733 102.761L135.296 111.315C135.002 111.619 134.928 112.07 135.117 112.447L141.529 125.352H141.518Z" fill="#0A203E" stroke="#EB612C" stroke-width="2" stroke-miterlimit="10"/>
<path d="M188.393 102.939C186.935 102.142 185.623 101.083 184.511 99.7833C182.108 96.9738 180.943 93.4095 181.226 89.7194C181.51 86.0398 183.22 82.6852 186.022 80.2845C188.834 77.8839 192.402 76.7202 196.096 77.0033C203.704 77.5903 209.412 84.2577 208.825 91.858C208.237 99.4583 201.563 105.161 193.955 104.574C191.972 104.417 190.093 103.861 188.393 102.939ZM200.65 80.4732C199.233 79.7079 197.649 79.2152 195.938 79.079C192.801 78.8378 189.768 79.8233 187.376 81.8675C184.983 83.9117 183.535 86.7527 183.294 89.8871C183.052 93.0216 184.039 96.0513 186.085 98.4414C188.131 100.832 190.985 102.278 194.113 102.519C200.577 103.023 206.254 98.1689 206.757 91.7112C207.125 86.9518 204.596 82.6223 200.65 80.4732Z" fill="#EB612C"/>
<path d="M179.967 118.58C179.852 118.517 179.736 118.454 179.621 118.391C179.568 118.36 179.505 118.318 179.453 118.286H179.432C179.285 118.192 179.138 118.108 179.002 118.024L178.949 117.993C178.729 117.867 178.655 117.584 178.781 117.364V117.343C178.918 117.123 179.212 117.049 179.432 117.185C181.31 118.307 183.325 119.23 185.424 119.932C199.853 124.786 215.415 118.37 222.477 105.455C223.327 103.893 224.061 102.236 224.649 100.496C230.095 84.331 221.375 66.7612 205.194 61.3204C190.765 56.4667 175.203 62.8824 168.141 75.7977C167.291 77.3597 166.556 79.0161 165.969 80.7563C164.174 86.0713 163.859 91.7531 165.056 97.2044C165.077 97.3197 165.056 97.435 165.014 97.5294C164.951 97.6447 164.846 97.7286 164.699 97.76C164.447 97.8124 164.195 97.6552 164.143 97.4036C162.915 91.7951 163.24 85.935 165.087 80.4522C165.696 78.6596 166.441 76.9509 167.322 75.3364C174.594 62.0333 190.618 55.4183 205.488 60.4188C222.152 66.0274 231.145 84.1319 225.531 100.779C224.922 102.572 224.177 104.281 223.295 105.895C216.023 119.198 199.999 125.813 185.13 120.813C183.346 120.215 181.625 119.46 179.988 118.569L179.967 118.58Z" fill="#FDFDFF"/>
<path d="M266.067 378.804L262.972 381.855C258.575 381.436 255.185 380.062 252.583 378.333C254.147 374.443 255.742 372.137 256.99 370.785C261.083 376.54 266.067 378.804 266.067 378.804Z" fill="#F9D7CF"/>
<path d="M244.503 367.378L251.817 355.961C252.3 362.398 254.472 367.241 256.99 370.774C255.742 372.127 254.147 374.433 252.583 378.322C246.087 373.993 244.503 367.378 244.503 367.378Z" fill="url(#paint20_linear_409_617)"/>
<path d="M246.287 457.586L246.255 457.565C244.115 456.045 239.172 452.721 235.038 451.401L232.204 451.233C232.204 451.233 231.239 452.69 230.903 456.034C230.882 456.191 230.872 456.338 230.861 456.506C230.798 457.24 231.344 457.879 232.078 457.942C235.059 458.162 242.467 458.676 246.035 458.487C246.507 458.466 246.686 457.858 246.297 457.586H246.287Z" fill="#0A203E"/>
<path d="M210.661 456.653C210.399 454.944 209.968 452.47 209.633 451.841C209.118 450.845 207.334 451.841 207.334 451.841C207.334 451.841 206.086 452.417 205.519 453.392C205.152 454.011 204.144 455.762 203.452 456.957C203.378 457.093 203.336 457.24 203.347 457.376C203.357 457.785 203.683 458.152 204.134 458.162L209.202 458.299C209.737 458.309 210.199 458.036 210.461 457.617C210.64 457.334 210.713 456.999 210.661 456.642V456.653Z" fill="#0A203E"/>
<path d="M211.207 446.159C211.144 446.369 210.231 450.814 209.821 452.763C209.706 453.298 209.223 453.686 208.678 453.654C208.373 453.644 208.027 453.613 207.66 453.56C207.009 453.476 206.516 452.931 206.484 452.281C206.422 450.572 206.39 447.281 207.02 446.012C207.891 444.261 211.207 446.159 211.207 446.159Z" fill="#BDD0FB"/>
<path d="M231.648 447.438C232.047 447.427 231.491 449.472 232.089 451.484C232.225 451.935 232.561 452.292 233.033 452.302C233.338 452.302 233.705 452.302 234.072 452.271C234.628 452.229 235.069 451.799 235.122 451.243L235.604 446.033L231.638 447.448L231.648 447.438Z" fill="#BDD0FB"/>
<path d="M242.667 392.003C242.488 392.862 236.286 429.04 235.909 447.763C235.909 448.077 235.667 448.34 235.363 448.381C234.576 448.486 233.044 448.633 231.554 448.36C231.354 448.319 231.197 448.151 231.187 447.952C230.966 444.461 229.224 414.961 231.365 401.081C231.365 401.081 213.715 438.202 211.039 448.434C210.976 448.685 210.745 448.853 210.483 448.832C209.727 448.79 208.153 448.654 206.904 448.193C206.453 448.025 206.201 447.553 206.317 447.092C207.807 440.97 218.29 398.764 225.405 389.466L242.677 392.003H242.667Z" fill="#1A4289"/>
<path d="M231.354 401.301C231.291 401.301 231.239 401.28 231.197 401.238C231.102 401.144 231.102 400.997 231.197 400.913L233.558 398.502C233.652 398.408 233.799 398.408 233.883 398.502C233.978 398.597 233.978 398.743 233.883 398.827L231.522 401.238C231.522 401.238 231.417 401.312 231.354 401.312V401.301Z" fill="url(#paint21_linear_409_617)"/>
<path d="M252.761 346.705C248.228 345.52 239.865 343.665 233.201 344.053C231.669 344.147 230.441 345.352 230.358 346.883C229.35 364.6 227.975 380.324 225.384 389.466C231.197 391.762 236.969 392.831 242.656 392.003C246.916 382.882 250.642 372.347 253.832 360.385C253.832 360.385 255.7 350.846 253.884 347.669C253.601 347.177 253.234 346.831 252.751 346.705H252.761Z" fill="url(#paint22_linear_409_617)"/>
<path d="M241.848 334.293C241.848 334.293 240.704 341.117 240.358 344.273C240.305 344.786 240.568 345.269 241.03 345.51C242.278 346.149 244.954 347.187 247.861 346.243C248.344 346.086 248.658 345.625 248.648 345.122L248.449 336.012L241.848 334.303V334.293Z" fill="#F9D7CF"/>
<path d="M249.319 326.734C249.319 326.734 251.534 331.808 251.681 334.471C251.827 337.134 252.405 338.863 249.319 339.398C246.234 339.933 243.642 338.402 242.236 335.75C242.236 335.75 240.033 331.661 240.526 329.995C241.019 328.317 249.319 326.745 249.319 326.745V326.734Z" fill="#F9D7CF"/>
<path d="M243.296 333.842H243.684C243.684 333.842 242.079 330.55 243.485 329.974C244.891 329.397 250.474 328.254 251.681 326.283C252.845 324.376 251.807 321.912 250.253 321.22C250.159 321.178 250.044 321.22 249.991 321.314L249.865 321.556C249.781 321.723 249.529 321.692 249.477 321.514C249.424 321.346 249.194 321.304 249.099 321.461C248.732 322.048 247.735 323.013 245.049 323.505C241.25 324.208 238.731 325.738 238.679 328.37C238.679 328.537 238.501 328.632 238.354 328.537C238.07 328.37 237.619 328.286 237.021 328.789C235.982 329.67 236.402 331.944 238.689 333.81C238.794 333.894 238.794 334.073 238.689 334.146C238.27 334.418 237.661 335.058 239.256 335.918C240.893 336.788 241.869 336.693 242.226 336.599C242.32 336.578 242.394 336.484 242.383 336.379L242.236 334.052C242.236 333.936 242.32 333.831 242.446 333.831H243.275L243.296 333.842Z" fill="url(#paint23_linear_409_617)"/>
<path d="M243.391 334.324C243.391 334.324 242.551 331.085 241.093 331.997C239.634 332.909 241.848 335.624 243.013 335.75L243.391 334.335V334.324Z" fill="#F9D7CF"/>
<path d="M196.222 387.023L193.242 387.778C188.121 389.067 184.679 392.915 185.55 396.364L186.589 400.463C187.46 403.912 192.318 405.662 197.439 404.362L200.419 403.608C200.619 403.555 200.818 403.503 201.007 403.45L288.503 377.295L286.247 368.363L196.82 386.887C196.62 386.929 196.421 386.971 196.222 387.023ZM197.502 391.112C201.353 390.137 204.952 391.206 205.53 393.491C206.107 395.777 203.452 398.429 199.601 399.393C195.749 400.368 192.15 399.299 191.573 397.014C190.996 394.728 193.651 392.076 197.502 391.112Z" fill="#EB612C"/>
<path d="M315.335 356.224L298.02 360.595C296.793 360.91 295.764 361.769 295.261 362.933L292.669 368.908C291.934 370.617 292.427 372.598 293.896 373.751L299.017 377.777C300.014 378.563 301.326 378.836 302.554 378.532L319.868 374.16C322.481 373.5 324.695 376.226 323.468 378.616C320.519 384.34 315.104 388.868 308.22 390.608C295.764 393.753 284.746 386.216 281.724 374.255C278.702 362.293 284.809 350.426 297.254 347.281C304.138 345.541 311.054 346.956 316.374 350.594C318.598 352.114 317.937 355.563 315.324 356.224H315.335Z" fill="#EB612C"/>
<path d="M315.755 357.848L298.44 362.22C297.212 362.534 296.184 363.394 295.68 364.558L293.088 370.533C292.354 372.242 292.847 374.223 294.316 375.376L299.437 379.402C300.434 380.188 301.746 380.461 302.973 380.157L320.288 375.785C322.901 375.125 325.115 377.85 323.887 380.241C320.939 385.964 315.524 390.493 308.64 392.233C296.184 395.378 285.166 387.841 282.144 375.88C279.121 363.918 285.229 352.051 297.674 348.906C304.558 347.166 311.473 348.581 316.794 352.219C319.018 353.739 318.357 357.188 315.744 357.848H315.755Z" fill="#EB612C"/>
<path d="M196.547 388.323L193.567 389.078C188.446 390.367 185.004 394.215 185.875 397.664L186.914 401.763C187.785 405.212 192.643 406.962 197.764 405.662L200.744 404.908C200.944 404.855 201.143 404.803 201.332 404.75L288.828 378.595L286.572 369.663L197.145 388.187C196.946 388.229 196.746 388.271 196.547 388.323ZM197.827 392.412C201.678 391.437 205.278 392.506 205.855 394.791C206.432 397.077 203.777 399.729 199.926 400.693C196.075 401.668 192.475 400.599 191.898 398.314C191.321 396.028 193.976 393.376 197.827 392.412Z" fill="#EB612C"/>
<path d="M218.626 370.302C216.38 376.592 217.65 383.323 217.65 383.323L214.691 384.109C214.691 384.109 210.871 379.57 211.742 369.506C214.47 369.086 217.031 369.726 218.626 370.302Z" fill="#F9D7CF"/>
<path d="M211.742 369.506C211.837 368.374 211.994 367.178 212.225 365.9C214.219 354.798 228.469 346.254 231.827 344.378C232.142 344.199 232.519 344.44 232.509 344.797L232.037 359.893C224.104 360.962 220.347 365.491 218.626 370.292C217.031 369.715 214.47 369.086 211.742 369.495V369.506Z" fill="url(#paint24_linear_409_617)"/>
<path d="M272.301 384.339C272.857 384.182 273.308 383.794 273.539 383.27C273.99 382.253 274.504 380.628 273.413 380.136C271.786 379.402 268.827 382.421 268.827 382.421L267.379 384.759L266.057 385.398C267.264 385.734 269.604 385.178 272.29 384.339H272.301Z" fill="#F9D7CF"/>
<path d="M217.45 381.855H221.102C221.102 381.855 218.132 383.627 218.038 385.503C217.944 387.369 219.213 391.237 219.811 392.296C220.462 393.449 211.532 390.577 214.691 381.865H217.45V381.855Z" fill="#F9D7CF"/>
<path d="M358.38 316.377C358.38 316.377 343.542 335.351 360.468 354.662L366.838 354.064C366.838 354.064 355.19 335.372 359.671 319.92C359.87 319.239 360.51 318.778 361.213 318.83L367.709 319.302C368.569 319.365 369.43 319.103 370.101 318.557L374.036 315.402L358.369 316.377H358.38Z" fill="#F9D7CF"/>
<path d="M366.512 409.29C366.512 409.29 378.538 435.466 384.845 446.306C384.845 446.306 386.094 453.13 384.845 455.269L383.774 455.741L388.759 455.594C388.759 455.594 389.2 446.421 388.853 445.907C388.507 445.394 387.815 445.425 387.815 445.425C387.815 445.425 385.674 428.516 379.493 424.91L373.501 404.279L366.512 409.29Z" fill="url(#paint25_linear_409_617)"/>
<path d="M381.644 457.041C381.644 457.156 385.537 457.103 387.657 457.072C388.444 457.062 389.105 456.506 389.273 455.741L390.868 447.344C391.015 446.547 390.511 445.771 389.724 445.593L388.832 445.394C388.832 445.394 387.563 447.134 387.961 448.78C388.36 450.426 388.717 454.682 387.709 455.175C386.702 455.667 383.785 455.762 383.785 455.762C383.785 455.762 381.728 455.961 381.655 457.051L381.644 457.041Z" fill="url(#paint26_linear_409_617)"/>
<path d="M355.116 457.187C354.718 457.407 354.885 458.016 355.337 458.005C358.883 457.974 366.817 457.858 367.53 457.565C368.443 457.187 367.194 453.917 365.893 452.805L358.674 455.164L355.127 457.187H355.116Z" fill="url(#paint27_linear_409_617)"/>
<path d="M352.871 407.623C352.871 407.623 360.636 445.174 362.84 452.491L357.645 455.751C357.645 455.751 360.248 455.311 362.178 455.164C364.109 455.028 365.883 452.805 365.883 452.805L365.264 451.809C365.264 451.809 363.312 414.468 363.794 410.233L352.881 407.612L352.871 407.623Z" fill="url(#paint28_linear_409_617)"/>
<path d="M333.583 320.046C333.583 320.046 332.513 339.576 350.31 349.556L346.029 359.316C346.029 359.316 329.911 349.577 330.509 323.023C330.53 322.258 330.246 321.524 329.753 320.948L326.332 316.974C325.031 315.465 324.538 313.41 325.021 311.471L325.472 309.668C325.619 309.07 326.311 308.777 326.846 309.091L327.203 309.301C328.347 309.961 329.249 310.968 329.785 312.163L331.506 314.878C332.135 316.283 332.282 316.87 333.814 316.733L336.668 316.765L333.594 320.036L333.583 320.046Z" fill="#F9D7CF"/>
<path d="M349.691 348.089C352.671 348.917 362.756 351.569 369.052 351.454L365.19 373.248L365.494 376.802L352.892 376.75C352.892 376.75 349.345 368.52 346.543 364.411C345.735 363.226 346.333 361.811 346.795 360.448L346.165 360.029C345.525 359.599 345.242 358.802 345.483 358.069L348.558 348.686C348.715 348.214 349.219 347.942 349.702 348.078L349.691 348.089Z" fill="url(#paint29_linear_409_617)"/>
<path d="M351.884 374.905L352.136 377.054C352.136 377.054 348.568 387.715 353.92 412.613C353.92 412.613 365.494 415.884 375.012 408.053C375.012 408.053 372.326 384.549 371.591 383.459C367.939 378.008 365.505 376.823 365.505 376.823L365.4 374.475C365.4 374.475 355.221 376.309 351.895 374.915L351.884 374.905Z" fill="#1A4289"/>
<path d="M356.816 349.85C356.774 349.787 359.45 341.778 359.45 341.778L363.28 342.124L364.781 351.213C364.781 351.213 358.768 352.429 356.816 349.85Z" fill="url(#paint30_linear_409_617)"/>
<path d="M362.367 329.145C362.116 329.303 354.172 332.584 355.882 340.813C355.987 341.295 356.313 341.715 356.764 341.914C357.929 342.438 360.437 343.319 363.438 343.015C367.593 342.595 370.322 335.341 370.206 333.234C370.091 331.127 364.907 327.562 362.378 329.145H362.367Z" fill="#F9D7CF"/>
<path d="M364.781 325.938C364.571 325.969 360.195 327.489 362.367 330.655C364.54 333.821 365.348 335.687 364.33 337.081C363.396 338.35 361.318 337.626 361.507 340.268C361.538 340.792 361.318 341.306 360.877 341.61C358.925 342.931 354.161 346.998 358.884 352.796C359.272 353.267 359.345 353.917 359.051 354.452C357.666 356.926 354.77 364.191 365.274 368.216C375.663 372.189 379.409 365.407 380.458 362.702C380.689 362.115 381.266 361.759 381.896 361.79C383.04 361.843 384.656 361.654 384.582 360.134C384.54 359.211 383.963 358.383 383.271 357.712C382.599 357.052 382.725 355.899 383.554 355.437C384.173 355.081 384.719 354.536 384.95 353.676C385.579 351.349 384.32 344.378 377.636 343.193C377.079 343.099 376.492 342.574 376.408 342.008V341.987C376.313 341.442 376.502 340.897 376.943 340.572C378.013 339.786 379.378 338.213 378.265 335.687C377.279 333.444 375.39 332.689 373.984 332.448C373.155 332.311 372.62 331.525 372.788 330.707C373.26 328.475 372.851 324.91 364.781 325.969V325.938Z" fill="#1A4289"/>
<path d="M373.05 24.1993C372.924 23.2978 372.84 22.3753 372.84 21.4423C372.84 10.1518 382.001 1 393.303 1C401.782 1 409.054 6.14726 412.16 13.4855C414.689 11.2421 418.005 9.85831 421.656 9.85831C429.548 9.85831 435.949 16.2531 435.949 24.1364H439.569C446.642 24.1364 452.424 29.9127 452.424 36.9784V38.8758C452.424 45.9415 446.642 51.7178 439.569 51.7178H373.134C366.061 51.7178 360.279 45.9415 360.279 38.8758V37.9324C360.279 30.6884 365.946 24.7235 373.06 24.1993H373.05Z" fill="#0A203E" stroke="#E1F0FF" stroke-width="2" stroke-miterlimit="10"/>
<path d="M240.211 297.759C228.038 297.759 218.132 287.863 218.132 275.702C218.132 263.542 227.335 254.358 238.91 253.687V276.027L249.246 295.819C246.423 297.088 243.317 297.748 240.201 297.748L240.211 297.759Z" fill="#FDFDFF"/>
<path opacity="0.8" d="M242.446 277.033H262.248C261.817 284.288 257.851 290.84 251.607 294.593L242.436 277.033H242.446Z" fill="#FDFDFF"/>
<path d="M241.575 274.371V253.687C252.667 254.369 261.587 263.279 262.248 274.371H241.575Z" fill="#EB612C"/>
<defs>
<linearGradient id="paint0_linear_409_617" x1="165.349" y1="265.03" x2="426.735" y2="265.03" gradientUnits="userSpaceOnUse">
<stop stop-color="#2B75E0"/>
<stop offset="1" stop-color="#2B75E0"/>
</linearGradient>
<linearGradient id="paint1_linear_409_617" x1="315.083" y1="281.677" x2="366.764" y2="281.677" gradientUnits="userSpaceOnUse">
<stop stop-color="#FDFDFF" stop-opacity="0"/>
<stop offset="1" stop-color="#FDFDFF"/>
</linearGradient>
<linearGradient id="paint2_linear_409_617" x1="510.989" y1="336.043" x2="500.191" y2="336.043" gradientUnits="userSpaceOnUse">
<stop stop-color="#09005D"/>
<stop offset="1" stop-color="#190E8D"/>
</linearGradient>
<linearGradient id="paint3_linear_409_617" x1="509.897" y1="331.032" x2="505.522" y2="331.032" gradientUnits="userSpaceOnUse">
<stop stop-color="#FF928E"/>
<stop offset="1" stop-color="#FEB3B1"/>
</linearGradient>
<linearGradient id="paint4_linear_409_617" x1="488.029" y1="335.865" x2="471.081" y2="335.865" gradientUnits="userSpaceOnUse">
<stop stop-color="#09005D"/>
<stop offset="1" stop-color="#190E8D"/>
</linearGradient>
<linearGradient id="paint5_linear_409_617" x1="487.766" y1="329.083" x2="483.412" y2="329.083" gradientUnits="userSpaceOnUse">
<stop stop-color="#FF928E"/>
<stop offset="1" stop-color="#FEB3B1"/>
</linearGradient>
<linearGradient id="paint6_linear_409_617" x1="480.914" y1="315.234" x2="512.811" y2="280.115" gradientUnits="userSpaceOnUse">
<stop stop-color="#2B75E0"/>
<stop offset="1" stop-color="#2B75E0"/>
</linearGradient>
<linearGradient id="paint7_linear_409_617" x1="502.415" y1="269.454" x2="577.937" y2="213.559" gradientUnits="userSpaceOnUse">
<stop stop-color="#2B75E0"/>
<stop offset="1" stop-color="#2B75E0"/>
</linearGradient>
<linearGradient id="paint8_linear_409_617" x1="464.869" y1="194.751" x2="481.995" y2="194.751" gradientUnits="userSpaceOnUse">
<stop stop-color="#2B75E0"/>
<stop offset="1" stop-color="#2B75E0"/>
</linearGradient>
<linearGradient id="paint9_linear_409_617" x1="383.575" y1="227.469" x2="387.825" y2="227.469" gradientUnits="userSpaceOnUse">
<stop stop-color="#2B75E0"/>
<stop offset="1" stop-color="#2B75E0"/>
</linearGradient>
<linearGradient id="paint10_linear_409_617" x1="368.086" y1="188.88" x2="399.851" y2="188.88" gradientUnits="userSpaceOnUse">
<stop stop-color="#2B75E0"/>
<stop offset="1" stop-color="#2B75E0"/>
</linearGradient>
<linearGradient id="paint11_linear_409_617" x1="404.059" y1="154.149" x2="408.707" y2="154.149" gradientUnits="userSpaceOnUse">
<stop stop-color="#2B75E0"/>
<stop offset="1" stop-color="#2B75E0"/>
</linearGradient>
<linearGradient id="paint12_linear_409_617" x1="435.004" y1="164.213" x2="439.139" y2="164.213" gradientUnits="userSpaceOnUse">
<stop stop-color="#2B75E0"/>
<stop offset="1" stop-color="#2B75E0"/>
</linearGradient>
<linearGradient id="paint13_linear_409_617" x1="418.32" y1="202.162" x2="452.151" y2="202.162" gradientUnits="userSpaceOnUse">
<stop stop-color="#2B75E0"/>
<stop offset="1" stop-color="#2B75E0"/>
</linearGradient>
<linearGradient id="paint14_linear_409_617" x1="409.505" y1="235.478" x2="414.164" y2="235.478" gradientUnits="userSpaceOnUse">
<stop stop-color="#2B75E0"/>
<stop offset="1" stop-color="#2B75E0"/>
</linearGradient>
<linearGradient id="paint15_linear_409_617" x1="391.152" y1="194.667" x2="428.939" y2="194.667" gradientUnits="userSpaceOnUse">
<stop stop-color="#2B75E0"/>
<stop offset="1" stop-color="#2B75E0"/>
</linearGradient>
<linearGradient id="paint16_linear_409_617" x1="120.164" y1="438.852" x2="89.0713" y2="438.852" gradientUnits="userSpaceOnUse">
<stop stop-color="#FDFDFF" stop-opacity="0"/>
<stop offset="1" stop-color="#FDFDFF"/>
</linearGradient>
<linearGradient id="paint17_linear_409_617" x1="111.007" y1="94.5546" x2="114.22" y2="96.3103" gradientUnits="userSpaceOnUse">
<stop stop-color="#2B75E0"/>
<stop offset="1" stop-color="#2B75E0"/>
</linearGradient>
<linearGradient id="paint18_linear_409_617" x1="132.485" y1="31.2265" x2="223.057" y2="80.719" gradientUnits="userSpaceOnUse">
<stop stop-color="#2B75E0"/>
<stop offset="1" stop-color="#2B75E0"/>
</linearGradient>
<linearGradient id="paint19_linear_409_617" x1="252.883" y1="34.123" x2="256.878" y2="36.3064" gradientUnits="userSpaceOnUse">
<stop stop-color="#2B75E0"/>
<stop offset="1" stop-color="#2B75E0"/>
</linearGradient>
<linearGradient id="paint20_linear_409_617" x1="233.254" y1="400.913" x2="204.157" y2="453.972" gradientUnits="userSpaceOnUse">
<stop stop-color="#2B75E0"/>
<stop offset="1" stop-color="#2B75E0"/>
</linearGradient>
<linearGradient id="paint21_linear_409_617" x1="230.347" y1="364.61" x2="231.415" y2="381.803" gradientUnits="userSpaceOnUse">
<stop stop-color="#09005D"/>
<stop offset="1" stop-color="#190E8D"/>
</linearGradient>
<linearGradient id="paint22_linear_409_617" x1="256.161" y1="342.061" x2="228.809" y2="379.69" gradientUnits="userSpaceOnUse">
<stop stop-color="#2B75E0"/>
<stop offset="1" stop-color="#2B75E0"/>
</linearGradient>
<linearGradient id="paint23_linear_409_617" x1="240.914" y1="323.579" x2="252.338" y2="338.298" gradientUnits="userSpaceOnUse">
<stop stop-color="#09005D"/>
<stop offset="1" stop-color="#190E8D"/>
</linearGradient>
<linearGradient id="paint24_linear_409_617" x1="243.108" y1="332.563" x2="215.744" y2="370.192" gradientUnits="userSpaceOnUse">
<stop stop-color="#2B75E0"/>
<stop offset="1" stop-color="#2B75E0"/>
</linearGradient>
<linearGradient id="paint25_linear_409_617" x1="366.512" y1="430.015" x2="388.99" y2="430.015" gradientUnits="userSpaceOnUse">
<stop stop-color="#FF928E"/>
<stop offset="1" stop-color="#FEB3B1"/>
</linearGradient>
<linearGradient id="paint26_linear_409_617" x1="397.406" y1="379.811" x2="386.294" y2="452.085" gradientUnits="userSpaceOnUse">
<stop stop-color="#2B75E0"/>
<stop offset="1" stop-color="#2B75E0"/>
</linearGradient>
<linearGradient id="paint27_linear_409_617" x1="373.858" y1="376.194" x2="362.746" y2="448.458" gradientUnits="userSpaceOnUse">
<stop stop-color="#2B75E0"/>
<stop offset="1" stop-color="#2B75E0"/>
</linearGradient>
<linearGradient id="paint28_linear_409_617" x1="352.871" y1="431.682" x2="365.893" y2="431.682" gradientUnits="userSpaceOnUse">
<stop stop-color="#FF928E"/>
<stop offset="1" stop-color="#FEB3B1"/>
</linearGradient>
<linearGradient id="paint29_linear_409_617" x1="384.719" y1="404.897" x2="369.955" y2="379.494" gradientUnits="userSpaceOnUse">
<stop stop-color="#2B75E0"/>
<stop offset="1" stop-color="#2B75E0"/>
</linearGradient>
<linearGradient id="paint30_linear_409_617" x1="356.816" y1="346.642" x2="364.781" y2="346.642" gradientUnits="userSpaceOnUse">
<stop stop-color="#FF928E"/>
<stop offset="1" stop-color="#FEB3B1"/>
</linearGradient>
</defs>
</svg>
